<svg width="1200" height="780" viewBox="0 0 1200 780" fill="none" xmlns="http://www.w3.org/2000/svg">
  <rect width="1200" height="780" rx="36" fill="#09111B"/>
  <rect x="36" y="36" width="1128" height="708" rx="30" fill="url(#bg1)"/>
  <rect x="88" y="88" width="1024" height="92" rx="24" fill="#101C2D"/>
  <rect x="122" y="118" width="220" height="18" rx="9" fill="#22C55E" fill-opacity="0.9"/>
  <rect x="122" y="148" width="320" height="12" rx="6" fill="#5B708D"/>
  <rect x="88" y="212" width="598" height="460" rx="28" fill="#0C1727"/>
  <path d="M130 564C200 540 242 474 304 450C367 425 429 462 494 410C565 353 622 320 644 274" stroke="#22C55E" stroke-width="10" stroke-linecap="round"/>
  <path d="M130 604H644" stroke="#20324A" stroke-width="3" stroke-linecap="round"/>
  <path d="M130 268V604" stroke="#20324A" stroke-width="3" stroke-linecap="round"/>
  <circle cx="304" cy="450" r="14" fill="#60A5FA"/>
  <circle cx="494" cy="410" r="14" fill="#F59E0B"/>
  <rect x="724" y="212" width="388" height="220" rx="28" fill="#0C1727"/>
  <rect x="756" y="248" width="170" height="16" rx="8" fill="#D7E2F0"/>
  <rect x="756" y="278" width="278" height="10" rx="5" fill="#546A86"/>
  <rect x="756" y="320" width="324" height="72" rx="22" fill="#111F32"/>
  <path d="M804 356L842 320L888 364L948 296L1032 356" stroke="#60A5FA" stroke-width="8" stroke-linecap="round" stroke-linejoin="round"/>
  <rect x="724" y="452" width="388" height="220" rx="28" fill="#0C1727"/>
  <rect x="756" y="486" width="132" height="16" rx="8" fill="#D7E2F0"/>
  <rect x="756" y="520" width="292" height="18" rx="9" fill="#1E2D42"/>
  <rect x="756" y="552" width="246" height="18" rx="9" fill="#1E2D42"/>
  <rect x="756" y="584" width="202" height="18" rx="9" fill="#1E2D42"/>
  <rect x="982" y="574" width="98" height="42" rx="14" fill="#22C55E"/>
  <text x="781" y="635" fill="#95A8C1" font-family="Arial, sans-serif" font-size="24">Upload chart screenshot</text>
  <defs>
    <linearGradient id="bg1" x1="80" y1="60" x2="1100" y2="730" gradientUnits="userSpaceOnUse">
      <stop stop-color="#0B1728"/>
      <stop offset="1" stop-color="#071018"/>
    </linearGradient>
  </defs>
</svg>
